<svg width="34" height="32" viewBox="0 0 34 32" fill="none" xmlns="http://www.w3.org/2000/svg">
<path d="M24.4846 32.0002C24.1182 31.9185 23.7436 31.8614 23.3772 31.7634C20.2587 30.9144 18.1416 27.9838 18.3289 24.8083C18.5243 21.5267 20.9263 18.8655 24.1508 18.3757C27.9045 17.7961 31.4627 20.49 31.935 24.2532C31.9431 24.3267 31.9757 24.4002 32.0001 24.4736C32.0001 24.9226 32.0001 25.3716 32.0001 25.8206C31.9757 25.894 31.9513 25.9675 31.935 26.041C31.4464 28.9553 29.8017 30.8573 26.9925 31.7389C26.6098 31.8614 26.2108 31.9104 25.8281 32.0002C25.3721 32.0002 24.9324 32.0002 24.4846 32.0002ZM26.4307 26.8573C26.4307 26.3104 26.4388 25.7634 26.4307 25.2165C26.4225 24.4573 25.877 23.9022 25.1523 23.9104C24.4439 23.9104 23.8902 24.4573 23.8821 25.192C23.8739 26.3104 23.8739 27.4287 23.8821 28.5471C23.8902 29.2736 24.4602 29.8287 25.1604 29.8287C25.8607 29.8287 26.4144 29.2655 26.4225 28.5389C26.4388 27.9757 26.4307 27.4206 26.4307 26.8573ZM23.8658 21.7553C23.8658 22.8247 24.0856 23.0451 25.1279 23.0532C26.2027 23.0614 26.4307 22.8328 26.4307 21.7634C26.4307 20.6859 26.2108 20.4736 25.136 20.4736C24.0693 20.4818 23.8658 20.6859 23.8658 21.7553Z" fill="#00AFEE"/>
<path d="M25.0707 15.6734C26.8295 15.6734 28.4743 16.1551 29.8829 16.9959C29.9969 13.7306 29.8667 10.4816 29.3374 7.25713C28.9628 4.93877 27.6763 3.19999 25.8117 1.85306C24.574 0.963264 23.1654 0.571428 21.6753 0.432652C20.1038 0.285714 18.5323 0.171428 16.9608 0.0408163C16.8794 0.032653 16.798 0.0163265 16.7247 0C15.544 0 14.3634 0 13.1827 0C12.572 0.0408163 11.9695 0.0571428 11.3588 0.122449C9.83613 0.293877 8.2972 0.383673 6.79898 0.685713C3.62341 1.31428 0.952672 4.23673 0.553689 7.45305C0.3257 9.27345 0.211705 11.102 0.0407125 12.9224C0.03257 13.0204 0.00814249 13.1183 0 13.2163C0 14.4 0 15.5836 0 16.7673C0.0407125 17.3877 0.0569974 18.0081 0.122137 18.6204C0.29313 20.1469 0.39084 21.6898 0.683969 23.2C1.28651 26.3265 4.27481 29.004 7.40967 29.4448C10.3898 29.8693 13.3781 30.0408 16.3908 29.9755C16.5781 29.9673 16.7654 29.9673 16.9527 29.9591C16.1058 28.5551 15.6254 26.9061 15.6254 25.1428C15.6254 19.9102 19.8514 15.6734 25.0707 15.6734ZM6.22901 7.87754C6.59542 7.41223 7.1084 7.2408 7.68651 7.2408C8.79389 7.2408 9.90127 7.2408 11.0168 7.2408C14.6972 7.2408 18.3857 7.2408 22.0662 7.2408C22.3186 7.2408 22.5791 7.24897 22.8234 7.31427C23.6702 7.54284 24.1751 8.34284 24.0611 9.2408C23.9552 10.0653 23.2305 10.702 22.3674 10.702C19.8921 10.7102 17.4249 10.702 14.9496 10.702C12.4906 10.702 10.0234 10.7102 7.56437 10.702C6.84784 10.702 6.31043 10.351 6.00916 9.70611C5.69974 9.06937 5.78117 8.4408 6.22901 7.87754ZM7.75165 17.9755C6.83969 17.9755 6.18829 17.551 5.92773 16.8081C5.53689 15.6979 6.343 14.5143 7.52366 14.5061C8.98931 14.4898 10.455 14.5061 11.9206 14.5061C13.3618 14.5061 14.8112 14.4979 16.2524 14.5061C17.1155 14.5143 17.8402 15.151 17.9461 15.9673C18.06 16.8653 17.5634 17.6571 16.7084 17.8938C16.4967 17.951 16.2687 17.9673 16.0488 17.9673C13.2804 17.9836 10.5201 17.9836 7.75165 17.9755Z" fill="#00AFEE"/>
</svg>
