<svg width="38" height="32" viewBox="0 0 38 32" fill="none" xmlns="http://www.w3.org/2000/svg">
<path d="M0.0521234 7.99998C0.0521234 7.72319 0.0521234 7.46427 0.0521234 7.20534C0.0521234 6.2232 -0.0470509 5.23213 0.0701551 4.26785C0.38571 1.77678 2.52246 0 5.0469 0C12.5661 0.00892855 20.0763 0.0178571 27.5955 0.0357142C28.4701 0.0357142 29.3536 -0.0267856 30.2101 0.107143C32.5182 0.482142 34.2222 2.53571 34.2492 4.85713C34.2582 5.89284 34.2492 6.93748 34.2492 7.99998C22.8171 7.99998 11.4572 7.99998 0.0521234 7.99998Z" fill="#00AFEE"/>
<path d="M30.4445 16.9553C26.2251 16.9643 22.8081 20.3393 22.8351 24.4821C22.8622 28.6964 26.2521 32.0178 30.4986 31.9999C34.6639 31.9821 38.0268 28.5714 37.9998 24.4107C37.9727 20.3035 34.5738 16.9464 30.4445 16.9553ZM33.8254 23.6518C32.8968 24.5714 31.9682 25.5 31.0395 26.4196C30.7871 26.6696 30.5437 26.9285 30.2822 27.1696C29.7773 27.625 29.1642 27.6428 28.6774 27.1785C28.0733 26.6071 27.4873 26.0178 26.9103 25.4107C26.4505 24.9285 26.4685 24.2946 26.9103 23.866C27.3611 23.4375 27.9651 23.4464 28.461 23.9196C28.7766 24.2232 29.0741 24.5535 29.4347 24.9285C30.3994 23.9732 31.283 23.0535 32.2206 22.1964C32.4821 21.9553 32.9148 21.741 33.2394 21.7768C33.555 21.8125 33.9336 22.1339 34.1049 22.4375C34.3393 22.866 34.168 23.3125 33.8254 23.6518Z" fill="#00AFEE"/>
<path d="M30.4265 14.1249C31.4994 14.1249 32.5362 14.2856 33.51 14.5802C33.9066 14.6249 34.1861 14.4642 34.2042 14.0892C34.2312 13.0267 34.2132 11.9552 34.2132 10.866C22.8262 10.866 11.4752 10.866 0.0611699 10.866C0.0611699 11.0713 0.0611699 11.241 0.0611699 11.4195C0.0611699 14.3749 0.0611699 17.3213 0.0611699 20.2767C0.0611699 20.4642 0.0611699 20.6606 0.0341224 20.8481C-0.2634 23.3838 1.41355 25.7499 3.93798 26.2677C4.62319 26.4106 5.35347 26.357 6.05671 26.357C10.4114 26.3659 14.775 26.357 19.1297 26.357C19.878 26.357 20.0222 26.2231 20.0313 25.5802C19.9952 25.2231 19.9772 24.857 19.9772 24.482C19.9682 18.7677 24.6474 14.1249 30.4265 14.1249ZM13.2423 20.2588C11.4031 20.2677 9.56387 20.2677 7.72464 20.2588C6.8501 20.2499 6.21899 19.6427 6.21899 18.8481C6.21899 18.0267 6.84108 17.4463 7.7607 17.4463C8.68032 17.4374 9.59993 17.4463 10.5195 17.4463C11.4211 17.4463 12.3317 17.4374 13.2333 17.4463C14.1259 17.4552 14.748 18.0267 14.766 18.8213C14.775 19.6338 14.1439 20.2499 13.2423 20.2588Z" fill="#00AFEE"/>
</svg>
