<svg width="34" height="32" viewBox="0 0 34 32" fill="none" xmlns="http://www.w3.org/2000/svg">
<path d="M15.0646 0C15.6906 0 16.3167 0 16.9428 0C17.3576 0.0468636 17.7645 0.0937271 18.1793 0.148401C21.3645 0.593605 24.1818 1.86673 26.5844 4.00683C29.3705 6.48279 31.1157 9.56017 31.7574 13.2468C31.8591 13.8482 31.9217 14.4574 32 15.0588C32 15.6837 32 16.3085 32 16.9334C31.9843 17.0427 31.9609 17.1521 31.9452 17.2614C31.867 17.8394 31.8278 18.4252 31.7183 18.9954C31.1157 22.1821 29.66 24.9314 27.3827 27.2355C24.9957 29.649 22.1236 31.1643 18.7663 31.7501C18.1637 31.8516 17.5532 31.9141 16.9428 32C16.3167 32 15.6906 32 15.0646 32C14.9706 31.9844 14.8846 31.9609 14.7906 31.9453C13.922 31.8125 13.0298 31.7344 12.1768 31.5314C3.9673 29.5553 -1.32306 21.3073 0.289089 13.0046C0.907342 9.81791 2.34732 7.06859 4.63251 4.76446C7.01944 2.34318 9.89158 0.827923 13.2489 0.249939C13.8515 0.140591 14.462 0.0781059 15.0646 0ZM15.315 25.9702C18.0854 25.9546 19.9949 25.3688 21.7088 24.166C23.4384 22.9553 24.667 21.3463 25.387 19.3625C25.5983 18.7845 25.301 18.2455 24.7297 18.105C24.2444 17.9878 23.8218 18.2299 23.6027 18.8001C23.0236 20.3154 22.0845 21.5572 20.7775 22.5336C17.788 24.7596 13.4602 24.5721 10.6742 22.0962C9.62549 21.1667 8.86637 20.042 8.37334 18.7298C8.16203 18.1752 7.64552 17.9487 7.14466 18.1362C6.64379 18.3237 6.43249 18.8626 6.63597 19.4093C8.08378 23.3459 11.8089 25.9546 15.315 25.9702ZM9.98549 9.04467C8.78811 9.04467 7.65335 9.5836 6.90988 10.5052C6.35423 11.2004 6.06467 11.9971 6.03337 12.8953C6.01771 13.4577 6.37771 13.8794 6.90205 13.9263C7.40291 13.9653 7.81769 13.5982 7.88813 13.0515C7.90378 12.95 7.91943 12.8484 7.92726 12.7391C8.05247 11.5128 9.31246 10.6536 10.4942 10.9895C11.4333 11.2551 11.9576 11.9268 12.0594 13.0046C12.1142 13.567 12.5289 13.9575 13.0376 13.9185C13.5698 13.8794 13.9454 13.442 13.922 12.8719C13.8594 10.7396 12.122 9.04467 9.98549 9.04467ZM22.014 9.02905C21.7558 9.06029 21.4975 9.07591 21.2393 9.12277C19.4549 9.45863 18.0619 11.1457 18.0776 12.9422C18.0854 13.4733 18.461 13.895 18.9697 13.9263C19.4706 13.9575 19.8932 13.5748 19.9401 13.0359C19.9558 12.9109 19.9715 12.7859 19.9871 12.661C20.1828 11.3019 21.7167 10.5052 22.9375 11.1301C23.7201 11.5284 24.0488 12.2001 24.1192 13.0515C24.1584 13.5982 24.6044 13.9653 25.1053 13.9185C25.6218 13.8716 25.9818 13.4577 25.974 12.9187C25.9505 10.7708 24.1662 9.02905 22.014 9.02905Z" fill="#00AFEE"/>
</svg>
