<svg width="38" height="32" viewBox="0 0 38 32" fill="none" xmlns="http://www.w3.org/2000/svg">
<path d="M37 16.8789C36.9488 17.2117 36.9062 17.553 36.8551 17.8858C36.3523 21.1967 34.8097 23.9359 32.2615 26.0778C30.3695 27.665 28.1793 28.6207 25.7248 28.9621C23.2278 29.3205 20.8245 28.9023 18.4723 28.1002C15.6087 27.1274 13.0265 25.5914 10.4953 23.9701C10.1459 23.7482 9.79647 23.5178 9.43001 23.2789C10.393 22.3061 11.339 21.3589 12.3276 20.369C8.94423 18.9183 5.60345 17.4762 2.1604 15.9999C5.58641 14.5237 8.92719 13.0901 12.3106 11.6309C11.3305 10.6495 10.3845 9.69381 9.41296 8.72101C10.2567 8.14074 11.0663 7.57754 11.8759 7.02288C14.0577 5.52101 16.3332 4.23248 18.9154 3.55834C21.4125 2.90127 23.9351 2.64527 26.4919 3.15727C29.219 3.70341 31.5371 5.00048 33.4461 7.03994C35.1762 8.88314 36.2756 11.0591 36.7528 13.5338C36.8551 14.0543 36.9148 14.5834 36.9915 15.1125C37 15.7013 37 16.2901 37 16.8789ZM32.6365 16.017C32.6706 11.2298 28.7844 7.30448 23.9777 7.25328C19.1967 7.21061 15.2508 11.1359 15.2252 15.9658C15.1997 20.753 19.0774 24.6869 23.8925 24.7295C28.6651 24.7722 32.6109 20.8469 32.6365 16.017Z" fill="#00AFEE"/>
<path d="M5.79517 1.4336C5.79517 0.64 6.44287 0 7.22693 0H12.3191C13.1116 0 13.7508 0.64 13.7508 1.4336C13.7508 2.2272 13.1116 2.8672 12.3191 2.8672H7.22693C6.44287 2.8672 5.79517 2.2272 5.79517 1.4336Z" fill="#00AFEE"/>
<path d="M12.3106 32H7.244C6.45141 32 5.80371 31.3515 5.80371 30.5579C5.80371 29.7643 6.45141 29.1157 7.244 29.1157H12.3106C13.1031 29.1157 13.7508 29.7643 13.7508 30.5579C13.7508 31.3515 13.1031 32 12.3106 32Z" fill="#00AFEE"/>
<path d="M6.50688 8.68703H1.44031C0.647725 8.68703 0.00854492 8.04702 0.00854492 7.25342C0.00854492 6.45982 0.647725 5.81982 1.44031 5.81982H6.50688C7.29946 5.81982 7.93864 6.45982 7.93864 7.25342C7.93864 8.04702 7.29946 8.68703 6.50688 8.68703Z" fill="#00AFEE"/>
<path d="M1.43176 23.2959H6.50685C7.29944 23.2959 7.93862 23.9359 7.93862 24.7295C7.93862 25.5231 7.29944 26.1631 6.50685 26.1631H1.43176C0.63918 26.1631 0 25.5231 0 24.7295C0.0085224 23.9359 0.647702 23.2959 1.43176 23.2959Z" fill="#00AFEE"/>
<path d="M19.1968 15.7015C19.4525 14.9249 19.7082 14.1655 19.9639 13.3889C20.0065 13.2695 20.1343 13.2012 20.2536 13.2353C20.3047 13.2524 20.3474 13.2609 20.3985 13.278C21.336 13.5852 22.2734 13.8924 23.2024 14.2167C23.4495 14.302 23.6029 14.2764 23.7904 14.0801C24.8642 12.9793 25.9636 11.8871 27.0289 10.8119C27.1227 10.718 27.2761 10.718 27.3698 10.8119C27.9408 11.3921 28.5118 11.9639 29.0913 12.5441C29.1851 12.638 29.1851 12.7831 29.0913 12.8769C27.813 14.1569 26.5261 15.4369 25.2563 16.734C24.6853 17.3143 23.833 17.5191 23.066 17.246C21.8643 16.8279 20.6542 16.4353 19.444 16.0343C19.4099 16.0257 19.3673 16.0087 19.3332 15.9916C19.2139 15.9575 19.1542 15.8209 19.1968 15.7015Z" fill="#00AFEE"/>
</svg>
