<svg width="34" height="32" viewBox="0 0 34 32" fill="none" xmlns="http://www.w3.org/2000/svg">
<path d="M0 15.0634C0.0750195 14.5125 0.141704 13.9532 0.233394 13.4023C0.57515 11.3572 1.32535 9.4624 2.40896 7.70113C2.45064 7.63435 2.49232 7.55923 2.54233 7.46741C2.10055 7.01666 1.6671 6.57425 1.21698 6.14019C0.925241 5.85639 0.791873 5.53084 0.90857 5.12183C1.0336 4.72116 1.33368 4.52917 1.73378 4.4457C3.89268 4.01999 6.04324 3.59428 8.1938 3.16857C8.93566 3.01832 9.4858 3.57759 9.33576 4.32049C8.91065 6.47409 8.47721 8.61933 8.0521 10.7729C7.97708 11.1736 7.77703 11.4741 7.36859 11.591C6.96848 11.7078 6.63506 11.5659 6.35165 11.2738C6.0099 10.9232 5.66814 10.5809 5.25137 10.1636C4.94295 10.9148 4.60953 11.5826 4.37614 12.2838C2.83407 16.8497 4.26778 22.0167 7.91873 25.1719C9.7192 26.7245 11.7781 27.7429 14.1287 28.1018C17.5879 28.6194 20.7304 27.8013 23.4894 25.6561C26.0401 23.6778 27.5738 21.0651 28.1073 17.8764C28.2073 17.2921 28.224 16.6995 28.249 16.1068C28.2824 15.439 28.6325 15.0718 29.3076 15.0718C29.7828 15.0718 30.2662 15.0968 30.7413 15.0634C31.3248 15.0217 31.7499 15.2137 32 15.7562C32 16.1736 32 16.591 32 17.0083C31.9833 17.0751 31.9583 17.1502 31.95 17.217C31.7666 19.6878 31.0581 21.9916 29.7744 24.1035C27.2321 28.2771 23.5645 30.8397 18.7549 31.7579C18.1714 31.8664 17.5879 31.9249 17.0044 32C16.3376 32 15.6707 32 15.0039 32C14.7955 31.975 14.5955 31.9416 14.3871 31.9249C11.2696 31.5826 8.46887 30.4558 6.02657 28.4858C2.90909 25.9566 0.966918 22.7095 0.250065 18.7529C0.141704 18.1686 0.083355 17.5843 0 17C0 16.3572 0 15.7062 0 15.0634Z" fill="#00AFEE"/>
<path d="M12.5032 18.8114C13.3534 18.8114 14.2036 18.8031 15.0539 18.8114C15.7541 18.8198 16.2042 19.5042 15.9208 20.1219C15.7624 20.4725 15.4706 20.6729 15.0872 20.6729C13.8285 20.6812 12.5699 20.6812 11.3112 20.6729C10.7694 20.6645 10.386 20.2472 10.386 19.6962C10.386 18.4024 10.9028 17.359 11.9781 16.6161C12.4449 16.2906 12.9367 15.9901 13.4034 15.6645C13.9286 15.3056 14.137 14.7797 14.137 14.162C14.1286 13.6278 13.7535 13.2104 13.2451 13.1854C12.7366 13.1603 12.3115 13.5443 12.2698 14.0785C12.2115 14.7046 11.7947 15.1052 11.2529 15.0552C10.7027 15.0051 10.361 14.546 10.4027 13.9199C10.5027 12.4425 11.778 11.2905 13.2701 11.3156C14.7455 11.3406 15.9708 12.551 16.0125 14.0201C16.0541 15.389 15.5373 16.4909 14.3954 17.2755C14.0286 17.5259 13.6368 17.7513 13.2701 18.0101C12.9783 18.2188 12.7199 18.4692 12.4449 18.7029C12.4615 18.7363 12.4782 18.778 12.5032 18.8114Z" fill="#00AFEE"/>
<path d="M19.7551 18.8114C18.8299 18.8114 17.9547 18.8114 17.0794 18.8114C16.2542 18.8114 15.8291 18.2438 16.0875 17.4675C16.6877 15.6561 17.2962 13.8364 17.9046 12.0251C18.063 11.5493 18.4465 11.2822 18.8882 11.3155C19.305 11.3489 19.6718 11.6494 19.7301 12.0751C19.7551 12.2755 19.7218 12.4925 19.6634 12.6845C19.2383 13.995 18.7965 15.3055 18.3548 16.6161C18.3214 16.7162 18.2964 16.808 18.2631 16.9249C18.7632 16.9249 19.2383 16.9249 19.7635 16.9249C19.7635 16.8247 19.7635 16.7246 19.7635 16.6244C19.7635 15.8231 19.7635 15.0217 19.7635 14.2204C19.7635 13.611 20.1469 13.1937 20.697 13.1853C21.2472 13.1853 21.639 13.6027 21.639 14.212C21.639 15.1052 21.639 15.9984 21.639 16.9332C21.9307 16.9332 22.2058 16.9332 22.4892 16.9332C23.0977 16.9416 23.5144 17.3256 23.5144 17.8681C23.5144 18.4107 23.0893 18.803 22.4808 18.803C22.2141 18.803 21.939 18.803 21.639 18.803C21.639 19.1035 21.639 19.379 21.639 19.6545C21.6306 20.2555 21.2389 20.6812 20.6887 20.6728C20.1552 20.6645 19.7635 20.2471 19.7635 19.6628C19.7551 19.404 19.7551 19.1202 19.7551 18.8114Z" fill="#00AFEE"/>
<path d="M12.4365 0.964889C12.4449 0.455706 12.8033 0.0550376 13.2784 0.00495408C13.7702 -0.0451295 14.2037 0.288761 14.3037 0.814638C14.412 1.40729 14.5121 1.99995 14.6121 2.5926C14.7371 3.31047 14.8622 4.02833 14.9872 4.7462C15.0789 5.28042 14.7455 5.75622 14.2203 5.85638C13.7369 5.9482 13.2367 5.60597 13.145 5.08844C12.9116 3.76957 12.6866 2.4507 12.4532 1.12349C12.4365 1.06506 12.4365 1.00663 12.4365 0.964889Z" fill="#00AFEE"/>
<path d="M19.5635 1.23208C19.4718 1.74126 19.3717 2.31722 19.2717 2.89318C19.1467 3.61939 19.03 4.3456 18.8883 5.07182C18.7883 5.60604 18.3215 5.94828 17.8297 5.86481C17.2879 5.77299 16.9628 5.30554 17.0545 4.73793C17.2629 3.48584 17.4796 2.24209 17.6963 0.990006C17.788 0.48917 18.2298 0.180321 18.7216 0.238752C19.205 0.297183 19.5551 0.689504 19.5635 1.23208Z" fill="#00AFEE"/>
<path d="M24.4814 3.01004C24.4231 3.17698 24.3897 3.35228 24.3064 3.50253C23.6979 4.57932 23.0811 5.64777 22.4476 6.71622C22.1641 7.20036 21.6057 7.34226 21.1556 7.07515C20.7138 6.81639 20.5637 6.26547 20.8221 5.79802C21.439 4.70453 22.0725 3.61939 22.706 2.53424C22.9394 2.13358 23.3645 1.99167 23.7812 2.11688C24.1897 2.24209 24.4481 2.58433 24.4814 3.01004Z" fill="#00AFEE"/>
<path d="M24.6397 9.75454C24.223 9.70445 23.8895 9.47073 23.7562 9.10345C23.6145 8.72782 23.7062 8.3355 24.0312 8.06004C24.7648 7.434 25.5066 6.8163 26.2485 6.19026C26.4652 6.00662 26.6736 5.82298 26.8903 5.64768C27.3154 5.30545 27.8989 5.35553 28.2323 5.74785C28.5574 6.14017 28.5241 6.70779 28.1073 7.05837C27.1487 7.8764 26.1901 8.68609 25.2149 9.47908C25.0565 9.62098 24.8315 9.67106 24.6397 9.75454Z" fill="#00AFEE"/>
<path d="M26.6069 13.0851C26.1068 13.0767 25.7317 12.7595 25.6567 12.3004C25.5817 11.8747 25.8401 11.4323 26.2818 11.2654C27.2654 10.8981 28.249 10.5475 29.2326 10.1886C29.441 10.1135 29.6411 10.03 29.8494 9.97156C30.3246 9.82965 30.8247 10.0884 30.9914 10.5392C31.1581 10.9983 30.9664 11.5325 30.4996 11.7078C29.291 12.1669 28.0656 12.6009 26.8487 13.0433C26.757 13.0851 26.6569 13.0767 26.6069 13.0851Z" fill="#00AFEE"/>
</svg>
