<svg width="186" height="56" viewBox="0 0 186 56" fill="none" xmlns="http://www.w3.org/2000/svg">
<path d="M8.79746 27.2063H13.8285C14.6883 27.2063 15.357 27.0789 15.8346 26.8241C16.3122 26.5694 16.5351 26.1873 16.5351 25.646V25.6141C16.5351 25.2639 16.3759 24.9454 16.0893 24.6907C15.8028 24.436 15.357 24.2768 14.7838 24.1175C14.2107 23.9902 13.4783 23.9265 12.6185 23.9265C11.5996 23.9265 10.7717 23.9902 10.103 24.1494C9.4343 24.3086 8.92483 24.5633 8.54272 24.8818C8.19245 25.2002 7.96956 25.5823 7.87403 26.0599V26.1873H1.25083V26.0281C1.34636 24.4997 1.82399 23.226 2.74742 22.1433C3.67085 21.0607 4.97638 20.2646 6.63218 19.6915C8.31982 19.1183 10.3259 18.8317 12.6504 18.8317C14.9112 18.8317 16.8217 19.0546 18.4138 19.5323C20.0059 20.0099 21.2478 20.6786 22.0757 21.5383C22.9354 22.4299 23.3494 23.4489 23.3494 24.6907V24.7226C23.3494 25.8052 22.9673 26.7286 22.2349 27.4928C21.4707 28.257 20.4517 28.7665 19.1462 29.0213V29.1486C20.7065 29.3078 21.9165 29.8173 22.8081 30.6771C23.6997 31.505 24.1454 32.5876 24.1454 33.8613V33.8931C24.1454 35.2305 23.6997 36.4087 22.8081 37.3639C21.9165 38.3192 20.611 39.0834 18.9552 39.5929C17.2994 40.1024 15.2933 40.3571 12.9688 40.3571C10.4851 40.3571 8.35167 40.0705 6.60034 39.4974C4.84901 38.9242 3.47979 38.1282 2.52453 37.0455C1.56926 35.9947 1.05978 34.6892 0.996094 33.1926V32.9697H7.84219V33.0971C7.90587 33.5747 8.16061 33.9568 8.54272 34.2752C8.92483 34.5937 9.46615 34.8484 10.1667 35.0076C10.8672 35.1668 11.7269 35.2624 12.7777 35.2624C13.6693 35.2624 14.4335 35.1987 15.0385 35.0395C15.6436 34.8802 16.0893 34.6574 16.4078 34.4026C16.7262 34.116 16.8854 33.7658 16.8854 33.3837V33.3518C16.8854 32.8105 16.6307 32.3965 16.1212 32.11C15.6117 31.8552 14.8475 31.696 13.7967 31.696H8.79746V27.2063Z" fill="#00AFEE"/>
<path d="M29.1128 39.5293C28.0938 39.1471 27.2978 38.574 26.7565 37.8416C26.1833 37.1092 25.8967 36.2495 25.8967 35.1987C25.8967 34.2753 26.1515 33.4474 26.6609 32.7468C27.1704 32.0463 27.9665 31.505 29.081 31.091C30.1954 30.7089 31.6283 30.486 33.4115 30.4542L42.2955 30.295V33.3837L34.6852 33.5429C33.9847 33.5747 33.4752 33.6703 33.1249 33.8932C32.8065 34.1161 32.6473 34.4026 32.6473 34.7847C32.6473 35.2624 32.8702 35.6445 33.316 35.8674C33.7618 36.0903 34.3668 36.2177 35.0992 36.2177C35.8634 36.2177 36.5002 36.1221 37.0734 35.8992C37.6147 35.7082 38.0605 35.4216 38.3471 35.0395C38.6337 34.6574 38.7929 34.2434 38.7929 33.734V30.0084C38.7929 29.4034 38.5381 28.9258 38.0605 28.6073C37.5829 28.2571 36.8505 28.0979 35.9271 28.0979C35.131 28.0979 34.4942 28.2252 34.0484 28.4481C33.6026 28.671 33.316 28.9894 33.2205 29.3716L33.1886 29.4989H26.7565L26.7883 29.3397C27.0112 28.2571 27.4888 27.3018 28.2212 26.4739C28.9536 25.646 30.0044 25.0092 31.3099 24.5315C32.6155 24.0539 34.2394 23.831 36.1499 23.831C38.1242 23.831 39.8437 24.0857 41.2766 24.5634C42.7095 25.0728 43.8239 25.7734 44.5882 26.6968C45.3524 27.6202 45.7345 28.7666 45.7345 30.0721V39.8795H38.8247V37.4913H38.6973C38.3471 38.0327 37.8694 38.5103 37.2963 38.8924C36.7231 39.2745 36.0544 39.5611 35.2902 39.784C34.526 40.0069 33.6663 40.1024 32.711 40.1024C31.3418 40.1343 30.1318 39.9432 29.1128 39.5293Z" fill="#00AFEE"/>
<path d="M48.3137 24.2449H55.0961V32.2692H57.134L53.8543 33.9887L61.8785 24.2449H68.1196V39.9114H61.3691V31.8871H59.1719L62.388 30.3268L54.5548 39.9114H48.3137V24.2449ZM54.7459 22.1433C53.7269 21.7612 52.9309 21.1562 52.3258 20.392C51.7208 19.6278 51.4024 18.7044 51.3069 17.6536V17.367H55.6056V17.4944C55.6374 18.0675 55.924 18.5133 56.3698 18.8636C56.8475 19.2139 57.4843 19.4049 58.3122 19.4049C59.1401 19.4049 59.777 19.2139 60.2546 18.8636C60.7322 18.5133 60.987 18.0675 61.0188 17.4944V17.367H65.3494V17.6536C65.2538 18.7362 64.9354 19.6278 64.3304 20.392C63.7254 21.1562 62.9293 21.7294 61.9104 22.1433C60.8914 22.5255 59.6814 22.7484 58.3122 22.7484C56.943 22.7484 55.7648 22.5255 54.7459 22.1433Z" fill="#00AFEE"/>
<path d="M70.7627 39.9113V24.2449H79.4875L83.7544 33.1289H83.8817L88.1168 24.2449H96.7779V39.9113H90.4731V30.6452H90.3139L85.9833 39.4656H81.5254L77.1948 30.6452H77.0675V39.9113H70.7627Z" fill="#00AFEE"/>
<path d="M99.3889 24.2449H106.331V27.9068H111.266C113.463 27.9068 115.183 28.4481 116.425 29.4989C117.666 30.5816 118.303 32.0145 118.303 33.8613V33.8932C118.303 35.74 117.666 37.2048 116.425 38.2874C115.183 39.37 113.463 39.9113 111.266 39.9113H99.4208V24.2449H99.3889ZM106.331 32.2374V35.4216H109.419C110.088 35.4216 110.566 35.2942 110.916 35.0076C111.266 34.7211 111.425 34.3389 111.425 33.8295V33.7976C111.425 33.2881 111.266 32.8742 110.916 32.6195C110.566 32.3647 110.056 32.2055 109.387 32.2055H106.331V32.2374ZM119.736 24.2449H126.678V39.9113H119.736V24.2449Z" fill="#00AFEE"/>
<path d="M3.3931 11.5147C2.65676 11.1466 2.04314 10.6557 1.6443 9.9807C1.21477 9.3364 1 8.5387 1 7.64896V7.61828C1 6.72854 1.21477 5.93084 1.6443 5.28655C2.07383 4.64225 2.65676 4.12068 3.3931 3.75251C4.12943 3.38434 5.01918 3.20026 5.97028 3.20026C6.95206 3.20026 7.8418 3.38434 8.57814 3.75251C9.31448 4.12068 9.92809 4.61157 10.3269 5.28655C10.7565 5.93084 10.9712 6.72854 10.9712 7.61828V7.64896C10.9712 8.5387 10.7565 9.30572 10.3269 9.9807C9.89741 10.625 9.31448 11.1466 8.57814 11.5147C7.8418 11.8829 6.95206 12.067 6.00096 12.067C5.01918 12.067 4.16012 11.8829 3.3931 11.5147ZM7.96453 10.625C8.51678 10.3489 8.97699 9.95002 9.2838 9.45912C9.5906 8.96823 9.77469 8.35462 9.77469 7.64896V7.61828C9.77469 6.91262 9.62128 6.29901 9.2838 5.80812C8.94631 5.31723 8.51678 4.91838 7.96453 4.64225C7.41227 4.36612 6.7373 4.2434 6.00096 4.2434C5.26462 4.2434 4.62033 4.36612 4.06807 4.64225C3.51582 4.91838 3.05561 5.28655 2.7488 5.80812C2.44199 6.29901 2.25791 6.91262 2.25791 7.61828V7.64896C2.25791 8.35462 2.41131 8.96823 2.7488 9.45912C3.08629 9.95002 3.51582 10.3489 4.06807 10.625C4.62033 10.9011 5.2953 11.0238 6.03164 11.0238C6.7373 11.0238 7.41227 10.9011 7.96453 10.625Z" fill="#00D622"/>
<path d="M20.2061 7.98647H13.8245V11.8829H12.6279V3.41504H13.8245V7.03536H20.2061V3.41504H21.4026V11.8829H20.2061V7.98647Z" fill="#00D622"/>
<path d="M25.6366 10.3489C25.4525 10.8704 25.2071 11.2693 24.8389 11.5454C24.5014 11.8215 24.0412 11.9443 23.4583 11.9443C23.3049 11.9443 23.1515 11.9443 22.9981 11.9136C22.8446 11.8829 22.7219 11.8522 22.6299 11.8215V10.7784C22.7219 10.8091 22.814 10.8398 22.9367 10.8398C23.0594 10.8704 23.1821 10.8704 23.2742 10.8704C23.6117 10.8704 23.8878 10.7784 24.1026 10.5943C24.3173 10.4102 24.4707 10.1341 24.5934 9.73525C24.7162 9.36708 24.7775 8.87619 24.8082 8.29325L25.1764 3.38434H32.7852V11.8829H31.5887V4.3968H26.2809L25.9741 8.47734C25.9434 9.21368 25.8207 9.85797 25.6366 10.3489Z" fill="#00D622"/>
<path d="M36.3134 11.7295C35.7612 11.5147 35.301 11.2386 34.9941 10.8397C34.6873 10.4409 34.5339 9.98065 34.5339 9.4284C34.5339 8.93751 34.6567 8.53866 34.9021 8.17049C35.1475 7.833 35.5464 7.55688 36.0373 7.34211C36.5589 7.15803 37.2032 7.0353 38.0009 7.00462L42.8177 6.8819V7.77164L38.1543 7.89436C37.3259 7.92505 36.7123 8.04777 36.3134 8.32389C35.9146 8.56934 35.7305 8.93751 35.7305 9.39772V9.4284C35.7305 9.98065 35.9759 10.3795 36.4975 10.6556C37.0191 10.9318 37.6634 11.0852 38.4917 11.0852C39.2281 11.0852 39.8724 10.9624 40.4553 10.7477C41.0383 10.5329 41.4678 10.2261 41.7746 9.82725C42.0814 9.4284 42.2348 8.96819 42.2348 8.44662V6.57509C42.2348 5.83876 41.9587 5.2865 41.4371 4.88765C40.9155 4.4888 40.1485 4.30472 39.1667 4.30472C38.3077 4.30472 37.602 4.45812 37.0804 4.76493C36.5282 5.07174 36.1907 5.47059 36.068 6.02284L36.0373 6.11488H34.8714L34.9021 6.02284C34.9941 5.50127 35.2396 5.01038 35.6078 4.61153C35.9759 4.21268 36.4668 3.90587 37.0804 3.66042C37.694 3.41498 38.3997 3.32294 39.1974 3.32294C40.0871 3.32294 40.8542 3.44566 41.4678 3.69111C42.0814 3.93655 42.5723 4.30472 42.9098 4.79561C43.2473 5.2865 43.4007 5.83876 43.4007 6.51373V11.8829H42.2041V10.1647H42.1734C41.9894 10.5636 41.6825 10.8704 41.3144 11.1772C40.9155 11.4533 40.486 11.6681 39.9644 11.8215C39.4429 11.9749 38.8906 12.0669 38.277 12.0669C37.5406 12.0363 36.8657 11.9442 36.3134 11.7295Z" fill="#00D622"/>
<path d="M45.3643 3.41498H46.5608V10.2568H47.1744L46.3154 10.5329L53.1572 3.41498H54.2003V11.8829H53.0038V5.07174H52.3595L53.2799 4.73425L46.4381 11.8829H45.3949V3.41498H45.3643ZM48.3403 2.15707C47.9108 1.97298 47.5733 1.72754 47.3278 1.42073C47.0824 1.08324 46.9597 0.715074 46.9597 0.285544V0.224182H47.9108V0.254863C47.9108 0.653712 48.0642 0.9912 48.4016 1.26733C48.7391 1.54345 49.1993 1.66618 49.8436 1.66618C50.4879 1.66618 50.9788 1.54345 51.2856 1.26733C51.5924 0.9912 51.7765 0.653712 51.7765 0.254863V0.224182H52.7276V0.285544C52.7276 0.715074 52.6049 1.11392 52.3595 1.42073C52.114 1.72754 51.7765 2.00366 51.347 2.15707C50.9175 2.34115 50.4266 2.40251 49.813 2.40251C49.2914 2.40251 48.7698 2.34115 48.3403 2.15707Z" fill="#00D622"/>
<path d="M63.8035 7.98647H57.4219V11.8829H56.2253V3.41504H57.4219V7.03536H63.8035V3.41504H65V11.8829H63.8035V7.98647Z" fill="#00D622"/>
<path d="M133.779 27.5883C133.906 26.6968 134.001 25.7733 134.161 24.8817C134.734 21.5383 135.944 18.4496 137.727 15.5838C137.791 15.4564 137.854 15.3609 137.95 15.2017C137.218 14.4693 136.517 13.7688 135.785 13.0364C135.307 12.5588 135.084 12.0493 135.275 11.3806C135.466 10.7119 135.976 10.4253 136.613 10.298C140.115 9.59744 143.65 8.89691 147.152 8.19638C148.362 7.94164 149.254 8.86507 149.031 10.0751C148.331 13.5777 147.63 17.0804 146.929 20.583C146.802 21.2199 146.484 21.7294 145.815 21.9204C145.146 22.1115 144.637 21.8886 144.159 21.4109C143.618 20.8378 143.045 20.2965 142.376 19.5959C141.867 20.8059 141.325 21.9204 140.943 23.0349C138.396 30.486 140.752 38.8924 146.707 44.019C149.636 46.5664 153.011 48.2222 156.832 48.7953C162.468 49.6232 167.595 48.3177 172.117 44.815C176.288 41.599 178.772 37.3321 179.631 32.1418C179.791 31.1865 179.823 30.2313 179.854 29.2441C179.918 28.1615 180.491 27.5565 181.574 27.5565C182.37 27.5565 183.134 27.5883 183.93 27.5565C184.885 27.4928 185.586 27.8112 186 28.671C186 29.3397 186 30.0402 186 30.7089C185.968 30.8363 185.936 30.9318 185.904 31.0592C185.586 35.0713 184.44 38.8287 182.338 42.2677C178.199 49.0501 172.212 53.2532 164.347 54.7498C163.392 54.9409 162.437 55.0046 161.481 55.1638C160.399 55.1638 159.316 55.1638 158.233 55.1638C157.915 55.1319 157.565 55.0683 157.246 55.0364C152.152 54.4951 147.598 52.6482 143.618 49.4322C138.523 45.3245 135.339 40.0387 134.193 33.6065C134.033 32.6513 133.938 31.696 133.779 30.7407C133.779 29.6899 133.779 28.6391 133.779 27.5883Z" fill="#00AFEE"/>
<path d="M154.062 4.63005C154.062 3.80215 154.667 3.13346 155.431 3.06978C156.227 2.97425 156.928 3.54741 157.119 4.37531C157.31 5.33058 157.469 6.31769 157.628 7.27296C157.819 8.45113 158.042 9.59745 158.233 10.7756C158.393 11.6354 157.851 12.4314 156.992 12.5906C156.195 12.7498 155.399 12.1767 155.24 11.3488C154.858 9.1835 154.476 7.05007 154.126 4.88479C154.062 4.78926 154.062 4.69374 154.062 4.63005Z" fill="#00AFEE"/>
<path d="M165.684 5.04403C165.525 5.87193 165.366 6.8272 165.207 7.75063C164.984 8.92879 164.793 10.107 164.57 11.317C164.411 12.1767 163.646 12.7499 162.85 12.5907C161.959 12.4314 161.449 11.6991 161.577 10.7438C161.927 8.7059 162.277 6.66799 162.628 4.63008C162.787 3.83403 163.519 3.29271 164.283 3.38823C165.111 3.5156 165.684 4.18429 165.684 5.04403Z" fill="#00AFEE"/>
<path d="M173.709 7.94166C173.613 8.1964 173.55 8.51482 173.422 8.73772C172.435 10.489 171.416 12.2404 170.397 13.9599C169.951 14.7559 169.028 14.9788 168.296 14.533C167.563 14.1191 167.308 13.2275 167.754 12.4633C168.773 10.6801 169.792 8.89693 170.843 7.1456C171.225 6.50876 171.926 6.25402 172.594 6.47692C173.231 6.69981 173.645 7.24113 173.709 7.94166Z" fill="#00AFEE"/>
<path d="M173.964 18.9272C173.295 18.8317 172.754 18.4496 172.531 17.8765C172.308 17.2714 172.435 16.6346 172.976 16.1888C174.186 15.1699 175.396 14.1509 176.606 13.1319C176.957 12.8454 177.307 12.5269 177.657 12.2404C178.358 11.699 179.313 11.7627 179.854 12.3996C180.396 13.0364 180.332 13.9598 179.663 14.533C178.103 15.8704 176.543 17.1759 174.951 18.4815C174.664 18.7044 174.282 18.7999 173.964 18.9272Z" fill="#00AFEE"/>
<path d="M177.18 24.3723C176.383 24.3723 175.747 23.831 175.619 23.0986C175.492 22.3981 175.906 21.6975 176.638 21.411C178.23 20.806 179.854 20.2328 181.446 19.6596C181.765 19.5323 182.115 19.4049 182.465 19.3094C183.23 19.0865 184.057 19.5004 184.312 20.2328C184.599 20.997 184.28 21.8567 183.516 22.1433C181.542 22.9075 179.536 23.6081 177.562 24.3086C177.434 24.3723 177.275 24.3404 177.18 24.3723Z" fill="#00AFEE"/>
<path d="M146.579 35.931L151.037 30.8363C151.801 29.9447 152.374 29.2123 152.757 28.6073C153.139 28.0023 153.425 27.4291 153.584 26.9515C153.744 26.4739 153.807 25.9644 153.807 25.4549V25.4231C153.807 25.0728 153.776 24.7544 153.68 24.4678C153.584 24.1812 153.457 23.9583 153.266 23.7991C153.075 23.6399 152.82 23.5444 152.534 23.5444C152.215 23.5444 151.961 23.6399 151.738 23.831C151.515 24.022 151.356 24.2768 151.26 24.627C151.164 24.9773 151.101 25.3594 151.069 25.8052V26.5694H146.261L146.293 25.7733C146.324 24.5315 146.579 23.4489 147.057 22.4936C147.566 21.5383 148.299 20.8059 149.222 20.2646C150.177 19.7233 151.324 19.4686 152.693 19.4686C154.03 19.4686 155.145 19.7233 156.068 20.2328C156.992 20.7423 157.66 21.4109 158.138 22.3025C158.616 23.1941 158.838 24.1812 158.838 25.3276V25.3594C158.838 26.251 158.711 27.1107 158.425 27.8749C158.138 28.6392 157.724 29.4034 157.183 30.1676C156.641 30.9318 155.941 31.7597 155.145 32.6194L151.324 36.8545L152.597 33.9568V36.8545L151.324 35.5489H158.966V39.6884H146.643V35.931H146.579Z" fill="#00AFEE"/>
<path d="M167.372 36.345H160.112V32.2055C160.271 31.6005 160.526 30.9 160.781 30.1357C161.067 29.3715 161.354 28.5436 161.704 27.6839C162.023 26.8241 162.373 25.9326 162.755 25.0091C163.137 24.0857 163.456 23.1941 163.838 22.3025C164.188 21.411 164.538 20.5194 164.825 19.6915H172.308V32.1418H173.963V36.345H172.308V39.6248H167.372V36.345ZM167.531 32.3647V23.2578H167.436C167.245 23.8628 167.022 24.4997 166.799 25.1365C166.576 25.7733 166.321 26.442 166.098 27.0789C165.844 27.7476 165.621 28.3526 165.43 28.9894C165.207 29.5944 165.016 30.1994 164.825 30.7407C164.634 31.2821 164.506 31.7915 164.379 32.2055V32.3329H167.531V32.3647Z" fill="#00AFEE"/>
</svg>
